<mxfile host="app.diagrams.net" agent="Mozilla/5.0 (Windows NT 10.0; Win64; x64) AppleWebKit/537.36 (KHTML, like Gecko) Chrome/127.0.0.0 Safari/537.36" version="24.7.7">
  <diagram name="第 1 页" id="qd19owQGamvkp8HrGmAx">
    <mxGraphModel dx="1280" dy="1987" grid="1" gridSize="10" guides="1" tooltips="1" connect="1" arrows="1" fold="1" page="1" pageScale="1" pageWidth="827" pageHeight="1169" math="0" shadow="0">
      <root>
        <mxCell id="0" />
        <mxCell id="1" parent="0" />
        <mxCell id="iqYd82NWPD9aMixS2ALM-1" value="&lt;font style=&quot;font-size: 14px;&quot;&gt;资金流转主体&lt;/font&gt;" style="swimlane;html=1;childLayout=stackLayout;startSize=20;rounded=0;shadow=0;labelBackgroundColor=none;strokeWidth=1;fontFamily=Verdana;fontSize=8;align=center;" vertex="1" parent="1">
          <mxGeometry x="60" y="-950" width="1070" height="340" as="geometry">
            <mxRectangle x="70" y="40" width="60" height="20" as="alternateBounds" />
          </mxGeometry>
        </mxCell>
        <mxCell id="iqYd82NWPD9aMixS2ALM-2" value="客户" style="swimlane;html=1;startSize=20;" vertex="1" parent="iqYd82NWPD9aMixS2ALM-1">
          <mxGeometry y="20" width="160" height="320" as="geometry">
            <mxRectangle y="20" width="40" height="730" as="alternateBounds" />
          </mxGeometry>
        </mxCell>
        <mxCell id="iqYd82NWPD9aMixS2ALM-3" value="支付渠道" style="swimlane;html=1;startSize=20;" vertex="1" parent="iqYd82NWPD9aMixS2ALM-1">
          <mxGeometry x="160" y="20" width="190" height="320" as="geometry">
            <mxRectangle x="160" y="20" width="40" height="730" as="alternateBounds" />
          </mxGeometry>
        </mxCell>
        <mxCell id="iqYd82NWPD9aMixS2ALM-4" value="&lt;span style=&quot;background-color: initial;&quot;&gt;&lt;b&gt;&amp;nbsp; &amp;nbsp;收款 - 个人支付渠道：&lt;/b&gt;&lt;/span&gt;&lt;br&gt;&lt;blockquote style=&quot;margin: 0 0 0 40px; border: none; padding: 0px;&quot;&gt;&lt;ol&gt;&lt;li style=&quot;text-align: left;&quot;&gt;&lt;span style=&quot;background-color: initial;&quot;&gt;富友快捷代扣渠道&lt;/span&gt;&lt;/li&gt;&lt;li style=&quot;text-align: left;&quot;&gt;&lt;span style=&quot;background-color: initial;&quot;&gt;通联快捷代扣渠道&lt;/span&gt;&lt;/li&gt;&lt;li style=&quot;text-align: left;&quot;&gt;&lt;span style=&quot;background-color: initial;&quot;&gt;平安、兴业、工行等&lt;/span&gt;&lt;/li&gt;&lt;/ol&gt;&lt;div style=&quot;text-align: left;&quot;&gt;&lt;span style=&quot;text-align: center; background-color: initial;&quot;&gt;&lt;b&gt;收款 - 机构支付渠道：&lt;/b&gt;&lt;/span&gt;&lt;br style=&quot;text-align: center;&quot;&gt;&lt;ol&gt;&lt;li&gt;浦发大额汇款代收&lt;br&gt;&lt;/li&gt;&lt;li&gt;机构mock支付渠道&lt;br&gt;&lt;/li&gt;&lt;/ol&gt;&lt;/div&gt;&lt;/blockquote&gt;" style="text;html=1;align=center;verticalAlign=middle;resizable=0;points=[];autosize=1;strokeColor=none;fillColor=none;" vertex="1" parent="iqYd82NWPD9aMixS2ALM-3">
          <mxGeometry x="-40" y="30" width="210" height="160" as="geometry" />
        </mxCell>
        <mxCell id="iqYd82NWPD9aMixS2ALM-5" value="财富归集户" style="swimlane;html=1;startSize=20;" vertex="1" parent="iqYd82NWPD9aMixS2ALM-1">
          <mxGeometry x="350" y="20" width="170" height="320" as="geometry">
            <mxRectangle x="320" y="20" width="40" height="730" as="alternateBounds" />
          </mxGeometry>
        </mxCell>
        <mxCell id="iqYd82NWPD9aMixS2ALM-6" value="&lt;b style=&quot;background-color: initial;&quot;&gt;财富归集户（2552）&lt;br&gt;&lt;/b&gt;&lt;br&gt;&lt;b style=&quot;background-color: initial;&quot;&gt;广州民生（6600）&lt;/b&gt;" style="text;html=1;align=left;verticalAlign=middle;resizable=0;points=[];autosize=1;strokeColor=none;fillColor=none;" vertex="1" parent="iqYd82NWPD9aMixS2ALM-5">
          <mxGeometry x="22" y="27" width="130" height="60" as="geometry" />
        </mxCell>
        <mxCell id="iqYd82NWPD9aMixS2ALM-7" value="垫资账户" style="swimlane;html=1;startSize=20;" vertex="1" parent="iqYd82NWPD9aMixS2ALM-1">
          <mxGeometry x="520" y="20" width="195" height="320" as="geometry" />
        </mxCell>
        <mxCell id="iqYd82NWPD9aMixS2ALM-8" value="&lt;b style=&quot;background-color: initial;&quot;&gt;浦发垫资 -&amp;gt; 2144&lt;br&gt;&lt;/b&gt;&lt;br&gt;&lt;b style=&quot;background-color: initial;&quot;&gt;北京垫资 -&amp;gt; 北京单位结算卡&lt;/b&gt;" style="text;html=1;align=left;verticalAlign=middle;resizable=0;points=[];autosize=1;strokeColor=none;fillColor=none;" vertex="1" parent="iqYd82NWPD9aMixS2ALM-7">
          <mxGeometry x="21" y="29" width="170" height="60" as="geometry" />
        </mxCell>
        <mxCell id="iqYd82NWPD9aMixS2ALM-9" value="浦发监管户" style="swimlane;html=1;startSize=20;" vertex="1" parent="iqYd82NWPD9aMixS2ALM-1">
          <mxGeometry x="715" y="20" width="185" height="320" as="geometry" />
        </mxCell>
        <mxCell id="iqYd82NWPD9aMixS2ALM-10" value="&lt;b style=&quot;background-color: initial;&quot;&gt;公募监管户 -&amp;gt; 0131&lt;br&gt;&lt;/b&gt;&lt;br&gt;&lt;b style=&quot;background-color: initial;&quot;&gt;私募监管户 -&amp;gt; 4695&lt;/b&gt;&lt;span style=&quot;color: rgba(0, 0, 0, 0); font-family: monospace; font-size: 0px; background-color: initial;&quot;&gt;%3CmxGraphModel%3E%3Croot%3E%3CmxCell%20id%3D%220%22%2F%3E%3CmxCell%20id%3D%221%22%20parent%3D%220%22%2F%3E%3CmxCell%20id%3D%222%22%20value%3D%22%26lt%3Bb%20style%3D%26quot%3Bbackground-color%3A%20initial%3B%26quot%3B%26gt%3B%E6%B5%A6%E5%8F%91%E5%9E%AB%E8%B5%84%20-%26amp%3Bgt%3B%202144%26lt%3Bbr%26gt%3B%26lt%3B%2Fb%26gt%3B%26lt%3Bbr%26gt%3B%26lt%3Bb%20style%3D%26quot%3Bbackground-color%3A%20initial%3B%26quot%3B%26gt%3B%E5%8C%97%E4%BA%AC%E5%9E%AB%E8%B5%84%20-%26amp%3Bgt%3B%20%E5%8C%97%E4%BA%AC%E5%8D%95%E4%BD%8D%E7%BB%93%E7%AE%97%E5%8D%A1%26lt%3B%2Fb%26gt%3B%22%20style%3D%22text%3Bhtml%3D1%3Balign%3Dleft%3BverticalAlign%3Dmiddle%3Bresizable%3D0%3Bpoints%3D%5B%5D%3Bautosize%3D1%3BstrokeColor%3Dnone%3BfillColor%3Dnone%3B%22%20vertex%3D%221%22%20parent%3D%221%22%3E%3CmxGeometry%20x%3D%22591%22%20y%3D%22-901%22%20width%3D%22170%22%20height%3D%2260%22%20as%3D%22geometry%22%2F%3E%3C%2FmxCell%3E%3C%2Froot%3E%3C%2FmxGraphModel%3E4&lt;/span&gt;" style="text;html=1;align=left;verticalAlign=middle;resizable=0;points=[];autosize=1;strokeColor=none;fillColor=none;" vertex="1" parent="iqYd82NWPD9aMixS2ALM-9">
          <mxGeometry x="27" y="30" width="130" height="60" as="geometry" />
        </mxCell>
        <mxCell id="iqYd82NWPD9aMixS2ALM-11" value="TA" style="swimlane;html=1;startSize=20;" vertex="1" parent="iqYd82NWPD9aMixS2ALM-1">
          <mxGeometry x="900" y="20" width="170" height="320" as="geometry" />
        </mxCell>
        <mxCell id="iqYd82NWPD9aMixS2ALM-12" value="&lt;span style=&quot;background-color: initial;&quot;&gt;&lt;b&gt;&amp;nbsp; &amp;nbsp; &amp;nbsp; &amp;nbsp; &amp;nbsp; &amp;nbsp; 出款 - 个人支付渠道（慢赎）：&lt;/b&gt;&lt;/span&gt;&lt;br&gt;&lt;blockquote style=&quot;margin: 0 0 0 40px; border: none; padding: 0px;&quot;&gt;&lt;ol&gt;&lt;li style=&quot;text-align: left;&quot;&gt;兴业慢赎、平安慢赎&lt;/li&gt;&lt;/ol&gt;&lt;div style=&quot;text-align: left;&quot;&gt;&lt;b style=&quot;background-color: initial; text-align: center;&quot;&gt;出款 - 个人支付渠道（快赎）：&lt;/b&gt;&lt;br&gt;&lt;/div&gt;&lt;div style=&quot;text-align: left;&quot;&gt;&lt;ol&gt;&lt;li&gt;&lt;span style=&quot;text-align: left; background-color: initial;&quot;&gt;兴业快赎、民生快赎&lt;/span&gt;&lt;/li&gt;&lt;/ol&gt;&lt;/div&gt;&lt;div style=&quot;text-align: left;&quot;&gt;&lt;/div&gt;&lt;/blockquote&gt;" style="text;html=1;align=center;verticalAlign=middle;resizable=0;points=[];autosize=1;strokeColor=none;fillColor=none;" vertex="1" parent="1">
          <mxGeometry x="179" y="-751" width="230" height="120" as="geometry" />
        </mxCell>
        <mxCell id="iqYd82NWPD9aMixS2ALM-13" value="&lt;span style=&quot;background-color: initial;&quot;&gt;&lt;b&gt;&amp;nbsp; &amp;nbsp; &amp;nbsp; &amp;nbsp; &amp;nbsp; &amp;nbsp; 税延....&lt;/b&gt;&lt;/span&gt;&lt;blockquote style=&quot;margin: 0 0 0 40px; border: none; padding: 0px;&quot;&gt;&lt;div style=&quot;text-align: left;&quot;&gt;&lt;/div&gt;&lt;/blockquote&gt;" style="text;html=1;align=center;verticalAlign=middle;resizable=0;points=[];autosize=1;strokeColor=none;fillColor=none;" vertex="1" parent="1">
          <mxGeometry x="179" y="-651" width="100" height="30" as="geometry" />
        </mxCell>
        <mxCell id="iqYd82NWPD9aMixS2ALM-14" value="&lt;font style=&quot;font-size: 14px;&quot;&gt;个人 - 银行卡申购&lt;/font&gt;" style="swimlane;html=1;childLayout=stackLayout;startSize=20;rounded=0;shadow=0;labelBackgroundColor=none;strokeWidth=1;fontFamily=Verdana;fontSize=8;align=center;" vertex="1" parent="1">
          <mxGeometry x="50" y="-480" width="1080" height="680" as="geometry">
            <mxRectangle x="70" y="40" width="60" height="20" as="alternateBounds" />
          </mxGeometry>
        </mxCell>
        <mxCell id="iqYd82NWPD9aMixS2ALM-15" value="客户" style="swimlane;html=1;startSize=20;" vertex="1" parent="iqYd82NWPD9aMixS2ALM-14">
          <mxGeometry y="20" width="160" height="660" as="geometry">
            <mxRectangle y="20" width="40" height="730" as="alternateBounds" />
          </mxGeometry>
        </mxCell>
        <mxCell id="iqYd82NWPD9aMixS2ALM-16" value="申购操作" style="rounded=1;whiteSpace=wrap;html=1;" vertex="1" parent="iqYd82NWPD9aMixS2ALM-15">
          <mxGeometry x="39" y="60" width="80" height="40" as="geometry" />
        </mxCell>
        <mxCell id="iqYd82NWPD9aMixS2ALM-17" value="支付渠道" style="swimlane;html=1;startSize=20;" vertex="1" parent="iqYd82NWPD9aMixS2ALM-14">
          <mxGeometry x="160" y="20" width="190" height="660" as="geometry">
            <mxRectangle x="160" y="20" width="40" height="730" as="alternateBounds" />
          </mxGeometry>
        </mxCell>
        <mxCell id="iqYd82NWPD9aMixS2ALM-18" value="收款 - 个人" style="rounded=1;whiteSpace=wrap;html=1;" vertex="1" parent="iqYd82NWPD9aMixS2ALM-17">
          <mxGeometry x="55" y="60" width="80" height="40" as="geometry" />
        </mxCell>
        <mxCell id="iqYd82NWPD9aMixS2ALM-19" value="财富归集户" style="swimlane;html=1;startSize=20;" vertex="1" parent="iqYd82NWPD9aMixS2ALM-14">
          <mxGeometry x="350" y="20" width="170" height="660" as="geometry">
            <mxRectangle x="320" y="20" width="40" height="730" as="alternateBounds" />
          </mxGeometry>
        </mxCell>
        <mxCell id="iqYd82NWPD9aMixS2ALM-20" value="是否民生卡" style="rhombus;whiteSpace=wrap;html=1;" vertex="1" parent="iqYd82NWPD9aMixS2ALM-19">
          <mxGeometry x="-145" y="165" width="100" height="60" as="geometry" />
        </mxCell>
        <mxCell id="iqYd82NWPD9aMixS2ALM-21" value="财富 2552" style="rounded=1;whiteSpace=wrap;html=1;" vertex="1" parent="iqYd82NWPD9aMixS2ALM-19">
          <mxGeometry x="45" y="150" width="80" height="40" as="geometry" />
        </mxCell>
        <mxCell id="iqYd82NWPD9aMixS2ALM-22" value="民生 6600" style="rounded=1;whiteSpace=wrap;html=1;" vertex="1" parent="iqYd82NWPD9aMixS2ALM-19">
          <mxGeometry x="45" y="200" width="80" height="40" as="geometry" />
        </mxCell>
        <mxCell id="iqYd82NWPD9aMixS2ALM-23" style="edgeStyle=orthogonalEdgeStyle;rounded=1;orthogonalLoop=1;jettySize=auto;html=1;strokeColor=default;strokeWidth=1;align=center;verticalAlign=middle;fontFamily=Verdana;fontSize=8;fontColor=default;labelBackgroundColor=none;startArrow=none;startFill=0;startSize=5;endArrow=classicThin;endFill=1;endSize=5;entryX=0;entryY=0.5;entryDx=0;entryDy=0;" edge="1" parent="iqYd82NWPD9aMixS2ALM-19" source="iqYd82NWPD9aMixS2ALM-20" target="iqYd82NWPD9aMixS2ALM-21">
          <mxGeometry relative="1" as="geometry">
            <Array as="points">
              <mxPoint x="10" y="195" />
              <mxPoint x="10" y="170" />
            </Array>
          </mxGeometry>
        </mxCell>
        <mxCell id="iqYd82NWPD9aMixS2ALM-24" value="否" style="edgeLabel;html=1;align=center;verticalAlign=middle;resizable=0;points=[];" connectable="0" vertex="1" parent="iqYd82NWPD9aMixS2ALM-23">
          <mxGeometry x="0.7441" y="-1" relative="1" as="geometry">
            <mxPoint x="-8" as="offset" />
          </mxGeometry>
        </mxCell>
        <mxCell id="iqYd82NWPD9aMixS2ALM-25" style="edgeStyle=orthogonalEdgeStyle;rounded=1;orthogonalLoop=1;jettySize=auto;html=1;entryX=0;entryY=0.5;entryDx=0;entryDy=0;strokeColor=default;strokeWidth=1;align=center;verticalAlign=middle;fontFamily=Verdana;fontSize=8;fontColor=default;labelBackgroundColor=none;startArrow=none;startFill=0;startSize=5;endArrow=classicThin;endFill=1;endSize=5;" edge="1" parent="iqYd82NWPD9aMixS2ALM-19" source="iqYd82NWPD9aMixS2ALM-20" target="iqYd82NWPD9aMixS2ALM-22">
          <mxGeometry relative="1" as="geometry">
            <Array as="points">
              <mxPoint x="10" y="195" />
              <mxPoint x="10" y="220" />
            </Array>
          </mxGeometry>
        </mxCell>
        <mxCell id="iqYd82NWPD9aMixS2ALM-26" value="是" style="edgeLabel;html=1;align=center;verticalAlign=middle;resizable=0;points=[];" connectable="0" vertex="1" parent="iqYd82NWPD9aMixS2ALM-25">
          <mxGeometry x="0.8019" y="1" relative="1" as="geometry">
            <mxPoint x="-11" as="offset" />
          </mxGeometry>
        </mxCell>
        <mxCell id="iqYd82NWPD9aMixS2ALM-27" value="垫资账户" style="swimlane;html=1;startSize=20;" vertex="1" parent="iqYd82NWPD9aMixS2ALM-14">
          <mxGeometry x="520" y="20" width="195" height="660" as="geometry" />
        </mxCell>
        <mxCell id="iqYd82NWPD9aMixS2ALM-28" style="edgeStyle=orthogonalEdgeStyle;rounded=1;orthogonalLoop=1;jettySize=auto;html=1;strokeColor=default;strokeWidth=1;align=center;verticalAlign=middle;fontFamily=Verdana;fontSize=8;fontColor=default;labelBackgroundColor=none;startArrow=none;startFill=0;startSize=5;endArrow=classicThin;endFill=1;endSize=5;entryX=0.5;entryY=0;entryDx=0;entryDy=0;entryPerimeter=0;" edge="1" parent="iqYd82NWPD9aMixS2ALM-27" source="iqYd82NWPD9aMixS2ALM-30" target="iqYd82NWPD9aMixS2ALM-33">
          <mxGeometry relative="1" as="geometry">
            <mxPoint x="97.5" y="270" as="targetPoint" />
          </mxGeometry>
        </mxCell>
        <mxCell id="iqYd82NWPD9aMixS2ALM-29" value="是" style="edgeLabel;html=1;align=center;verticalAlign=middle;resizable=0;points=[];" connectable="0" vertex="1" parent="iqYd82NWPD9aMixS2ALM-28">
          <mxGeometry x="-0.127" y="-1" relative="1" as="geometry">
            <mxPoint as="offset" />
          </mxGeometry>
        </mxCell>
        <mxCell id="iqYd82NWPD9aMixS2ALM-30" value="是否垫资" style="rhombus;whiteSpace=wrap;html=1;" vertex="1" parent="iqYd82NWPD9aMixS2ALM-27">
          <mxGeometry x="47.5" y="165" width="100" height="60" as="geometry" />
        </mxCell>
        <mxCell id="iqYd82NWPD9aMixS2ALM-31" style="edgeStyle=orthogonalEdgeStyle;rounded=0;orthogonalLoop=1;jettySize=auto;html=1;" edge="1" parent="iqYd82NWPD9aMixS2ALM-27" source="iqYd82NWPD9aMixS2ALM-33" target="iqYd82NWPD9aMixS2ALM-35">
          <mxGeometry relative="1" as="geometry" />
        </mxCell>
        <mxCell id="iqYd82NWPD9aMixS2ALM-32" style="edgeStyle=orthogonalEdgeStyle;rounded=0;orthogonalLoop=1;jettySize=auto;html=1;exitX=0.5;exitY=1;exitDx=0;exitDy=0;exitPerimeter=0;" edge="1" parent="iqYd82NWPD9aMixS2ALM-27" source="iqYd82NWPD9aMixS2ALM-33" target="iqYd82NWPD9aMixS2ALM-37">
          <mxGeometry relative="1" as="geometry" />
        </mxCell>
        <mxCell id="iqYd82NWPD9aMixS2ALM-33" value="" style="verticalLabelPosition=bottom;verticalAlign=top;html=1;shape=mxgraph.flowchart.summing_function;" vertex="1" parent="iqYd82NWPD9aMixS2ALM-27">
          <mxGeometry x="72.5" y="270" width="50" height="50" as="geometry" />
        </mxCell>
        <mxCell id="iqYd82NWPD9aMixS2ALM-34" style="edgeStyle=orthogonalEdgeStyle;rounded=0;orthogonalLoop=1;jettySize=auto;html=1;entryX=0.5;entryY=0;entryDx=0;entryDy=0;" edge="1" parent="iqYd82NWPD9aMixS2ALM-27" source="iqYd82NWPD9aMixS2ALM-35" target="iqYd82NWPD9aMixS2ALM-38">
          <mxGeometry relative="1" as="geometry">
            <mxPoint x="50" y="456" as="targetPoint" />
          </mxGeometry>
        </mxCell>
        <mxCell id="iqYd82NWPD9aMixS2ALM-35" value="浦发垫资" style="rounded=1;whiteSpace=wrap;html=1;" vertex="1" parent="iqYd82NWPD9aMixS2ALM-27">
          <mxGeometry x="10" y="386" width="80" height="40" as="geometry" />
        </mxCell>
        <mxCell id="iqYd82NWPD9aMixS2ALM-36" style="edgeStyle=orthogonalEdgeStyle;rounded=0;orthogonalLoop=1;jettySize=auto;html=1;entryX=0.5;entryY=0;entryDx=0;entryDy=0;" edge="1" parent="iqYd82NWPD9aMixS2ALM-27" source="iqYd82NWPD9aMixS2ALM-37" target="iqYd82NWPD9aMixS2ALM-39">
          <mxGeometry relative="1" as="geometry">
            <mxPoint x="148" y="456" as="targetPoint" />
          </mxGeometry>
        </mxCell>
        <mxCell id="iqYd82NWPD9aMixS2ALM-37" value="北京垫资" style="rounded=1;whiteSpace=wrap;html=1;" vertex="1" parent="iqYd82NWPD9aMixS2ALM-27">
          <mxGeometry x="108" y="386" width="80" height="40" as="geometry" />
        </mxCell>
        <mxCell id="iqYd82NWPD9aMixS2ALM-38" value="杨浦 2144" style="rounded=1;whiteSpace=wrap;html=1;" vertex="1" parent="iqYd82NWPD9aMixS2ALM-27">
          <mxGeometry x="10" y="456" width="80" height="40" as="geometry" />
        </mxCell>
        <mxCell id="iqYd82NWPD9aMixS2ALM-39" value="北京&lt;br&gt;单位结算卡" style="rounded=1;whiteSpace=wrap;html=1;" vertex="1" parent="iqYd82NWPD9aMixS2ALM-27">
          <mxGeometry x="108" y="456" width="80" height="40" as="geometry" />
        </mxCell>
        <mxCell id="iqYd82NWPD9aMixS2ALM-40" value="浦发监管户" style="swimlane;html=1;startSize=20;" vertex="1" parent="iqYd82NWPD9aMixS2ALM-14">
          <mxGeometry x="715" y="20" width="185" height="660" as="geometry" />
        </mxCell>
        <mxCell id="iqYd82NWPD9aMixS2ALM-41" value="公募监管户&lt;br&gt;131" style="rounded=1;whiteSpace=wrap;html=1;" vertex="1" parent="iqYd82NWPD9aMixS2ALM-40">
          <mxGeometry x="55" y="510" width="80" height="40" as="geometry" />
        </mxCell>
        <mxCell id="iqYd82NWPD9aMixS2ALM-42" value="TA" style="swimlane;html=1;startSize=20;" vertex="1" parent="iqYd82NWPD9aMixS2ALM-14">
          <mxGeometry x="900" y="20" width="180" height="660" as="geometry" />
        </mxCell>
        <mxCell id="iqYd82NWPD9aMixS2ALM-43" value="TA 交收账号" style="rounded=1;whiteSpace=wrap;html=1;" vertex="1" parent="iqYd82NWPD9aMixS2ALM-42">
          <mxGeometry x="50" y="560" width="80" height="40" as="geometry" />
        </mxCell>
        <mxCell id="iqYd82NWPD9aMixS2ALM-44" style="edgeStyle=orthogonalEdgeStyle;rounded=1;orthogonalLoop=1;jettySize=auto;html=1;exitX=1;exitY=0.5;exitDx=0;exitDy=0;entryX=0;entryY=0.5;entryDx=0;entryDy=0;strokeColor=default;strokeWidth=1;align=center;verticalAlign=middle;fontFamily=Verdana;fontSize=8;fontColor=default;labelBackgroundColor=none;startArrow=none;startFill=0;startSize=5;endArrow=classicThin;endFill=1;endSize=5;" edge="1" parent="iqYd82NWPD9aMixS2ALM-14" source="iqYd82NWPD9aMixS2ALM-16" target="iqYd82NWPD9aMixS2ALM-18">
          <mxGeometry relative="1" as="geometry">
            <mxPoint x="220" y="99.66666666666674" as="targetPoint" />
          </mxGeometry>
        </mxCell>
        <mxCell id="iqYd82NWPD9aMixS2ALM-45" style="edgeStyle=orthogonalEdgeStyle;rounded=1;orthogonalLoop=1;jettySize=auto;html=1;entryX=0.5;entryY=0;entryDx=0;entryDy=0;strokeColor=default;strokeWidth=1;align=center;verticalAlign=middle;fontFamily=Verdana;fontSize=8;fontColor=default;labelBackgroundColor=none;startArrow=none;startFill=0;startSize=5;endArrow=classicThin;endFill=1;endSize=5;" edge="1" parent="iqYd82NWPD9aMixS2ALM-14" source="iqYd82NWPD9aMixS2ALM-18" target="iqYd82NWPD9aMixS2ALM-20">
          <mxGeometry relative="1" as="geometry" />
        </mxCell>
        <mxCell id="iqYd82NWPD9aMixS2ALM-46" style="edgeStyle=orthogonalEdgeStyle;rounded=1;orthogonalLoop=1;jettySize=auto;html=1;entryX=0;entryY=0.5;entryDx=0;entryDy=0;strokeColor=default;strokeWidth=1;align=center;verticalAlign=middle;fontFamily=Verdana;fontSize=8;fontColor=default;labelBackgroundColor=none;startArrow=none;startFill=0;startSize=5;endArrow=classicThin;endFill=1;endSize=5;" edge="1" parent="iqYd82NWPD9aMixS2ALM-14" source="iqYd82NWPD9aMixS2ALM-21" target="iqYd82NWPD9aMixS2ALM-30">
          <mxGeometry relative="1" as="geometry">
            <Array as="points">
              <mxPoint x="510" y="190" />
              <mxPoint x="510" y="215" />
            </Array>
          </mxGeometry>
        </mxCell>
        <mxCell id="iqYd82NWPD9aMixS2ALM-47" style="edgeStyle=orthogonalEdgeStyle;rounded=1;orthogonalLoop=1;jettySize=auto;html=1;strokeColor=default;strokeWidth=1;align=center;verticalAlign=middle;fontFamily=Verdana;fontSize=8;fontColor=default;labelBackgroundColor=none;startArrow=none;startFill=0;startSize=5;endArrow=classicThin;endFill=1;endSize=5;" edge="1" parent="iqYd82NWPD9aMixS2ALM-14" source="iqYd82NWPD9aMixS2ALM-22" target="iqYd82NWPD9aMixS2ALM-30">
          <mxGeometry relative="1" as="geometry">
            <Array as="points">
              <mxPoint x="510" y="240" />
              <mxPoint x="510" y="215" />
            </Array>
          </mxGeometry>
        </mxCell>
        <mxCell id="iqYd82NWPD9aMixS2ALM-48" style="edgeStyle=orthogonalEdgeStyle;rounded=1;orthogonalLoop=1;jettySize=auto;html=1;entryX=0.5;entryY=0;entryDx=0;entryDy=0;strokeColor=default;strokeWidth=1;align=center;verticalAlign=middle;fontFamily=Verdana;fontSize=8;fontColor=default;labelBackgroundColor=none;startArrow=none;startFill=0;startSize=5;endArrow=classicThin;endFill=1;endSize=5;" edge="1" parent="iqYd82NWPD9aMixS2ALM-14" source="iqYd82NWPD9aMixS2ALM-30" target="iqYd82NWPD9aMixS2ALM-41">
          <mxGeometry relative="1" as="geometry">
            <Array as="points">
              <mxPoint x="810" y="215" />
            </Array>
          </mxGeometry>
        </mxCell>
        <mxCell id="iqYd82NWPD9aMixS2ALM-49" value="否" style="edgeLabel;html=1;align=center;verticalAlign=middle;resizable=0;points=[];" connectable="0" vertex="1" parent="iqYd82NWPD9aMixS2ALM-48">
          <mxGeometry x="-0.6696" y="-1" relative="1" as="geometry">
            <mxPoint as="offset" />
          </mxGeometry>
        </mxCell>
        <mxCell id="iqYd82NWPD9aMixS2ALM-50" style="edgeStyle=orthogonalEdgeStyle;rounded=1;orthogonalLoop=1;jettySize=auto;html=1;entryX=0;entryY=0.5;entryDx=0;entryDy=0;strokeColor=default;strokeWidth=1;align=center;verticalAlign=middle;fontFamily=Verdana;fontSize=8;fontColor=default;labelBackgroundColor=none;startArrow=none;startFill=0;startSize=5;endArrow=classicThin;endFill=1;endSize=5;" edge="1" parent="iqYd82NWPD9aMixS2ALM-14" source="iqYd82NWPD9aMixS2ALM-38" target="iqYd82NWPD9aMixS2ALM-41">
          <mxGeometry relative="1" as="geometry">
            <mxPoint x="570" y="560" as="targetPoint" />
            <Array as="points">
              <mxPoint x="570" y="550" />
            </Array>
          </mxGeometry>
        </mxCell>
        <mxCell id="iqYd82NWPD9aMixS2ALM-51" style="edgeStyle=orthogonalEdgeStyle;rounded=1;orthogonalLoop=1;jettySize=auto;html=1;strokeColor=default;strokeWidth=1;align=center;verticalAlign=middle;fontFamily=Verdana;fontSize=8;fontColor=default;labelBackgroundColor=none;startArrow=none;startFill=0;startSize=5;endArrow=classicThin;endFill=1;endSize=5;entryX=0;entryY=0.5;entryDx=0;entryDy=0;" edge="1" parent="iqYd82NWPD9aMixS2ALM-14" source="iqYd82NWPD9aMixS2ALM-39" target="iqYd82NWPD9aMixS2ALM-41">
          <mxGeometry relative="1" as="geometry">
            <mxPoint x="668" y="560" as="targetPoint" />
            <Array as="points">
              <mxPoint x="668" y="550" />
            </Array>
          </mxGeometry>
        </mxCell>
        <mxCell id="iqYd82NWPD9aMixS2ALM-52" style="edgeStyle=orthogonalEdgeStyle;rounded=1;orthogonalLoop=1;jettySize=auto;html=1;entryX=0;entryY=0.5;entryDx=0;entryDy=0;strokeColor=default;strokeWidth=1;align=center;verticalAlign=middle;fontFamily=Verdana;fontSize=8;fontColor=default;labelBackgroundColor=none;startArrow=none;startFill=0;startSize=5;endArrow=classicThin;endFill=1;endSize=5;" edge="1" parent="iqYd82NWPD9aMixS2ALM-14" source="iqYd82NWPD9aMixS2ALM-41" target="iqYd82NWPD9aMixS2ALM-43">
          <mxGeometry relative="1" as="geometry">
            <Array as="points">
              <mxPoint x="810" y="600" />
            </Array>
          </mxGeometry>
        </mxCell>
        <mxCell id="iqYd82NWPD9aMixS2ALM-53" value="&lt;font style=&quot;font-size: 14px;&quot;&gt;个人 - 滚钱宝申购&lt;/font&gt;" style="swimlane;html=1;childLayout=stackLayout;startSize=20;rounded=0;shadow=0;labelBackgroundColor=none;strokeWidth=1;fontFamily=Verdana;fontSize=8;align=center;" vertex="1" parent="1">
          <mxGeometry x="50" y="285" width="1330" height="990" as="geometry">
            <mxRectangle x="70" y="40" width="60" height="20" as="alternateBounds" />
          </mxGeometry>
        </mxCell>
        <mxCell id="iqYd82NWPD9aMixS2ALM-54" value="客户" style="swimlane;html=1;startSize=20;" vertex="1" parent="iqYd82NWPD9aMixS2ALM-53">
          <mxGeometry y="20" width="160" height="970" as="geometry">
            <mxRectangle y="20" width="40" height="730" as="alternateBounds" />
          </mxGeometry>
        </mxCell>
        <mxCell id="iqYd82NWPD9aMixS2ALM-55" value="申购操作" style="rounded=1;whiteSpace=wrap;html=1;" vertex="1" parent="iqYd82NWPD9aMixS2ALM-54">
          <mxGeometry x="39" y="60" width="80" height="40" as="geometry" />
        </mxCell>
        <mxCell id="iqYd82NWPD9aMixS2ALM-56" value="支付渠道" style="swimlane;html=1;startSize=20;" vertex="1" parent="iqYd82NWPD9aMixS2ALM-53">
          <mxGeometry x="160" y="20" width="190" height="970" as="geometry">
            <mxRectangle x="160" y="20" width="40" height="730" as="alternateBounds" />
          </mxGeometry>
        </mxCell>
        <mxCell id="iqYd82NWPD9aMixS2ALM-57" value="赎回RT" style="rounded=1;whiteSpace=wrap;html=1;" vertex="1" parent="iqYd82NWPD9aMixS2ALM-56">
          <mxGeometry x="55" y="60" width="80" height="40" as="geometry" />
        </mxCell>
        <mxCell id="iqYd82NWPD9aMixS2ALM-58" value="财富归集户" style="swimlane;html=1;startSize=20;" vertex="1" parent="iqYd82NWPD9aMixS2ALM-53">
          <mxGeometry x="350" y="20" width="240" height="970" as="geometry">
            <mxRectangle x="320" y="20" width="40" height="730" as="alternateBounds" />
          </mxGeometry>
        </mxCell>
        <mxCell id="iqYd82NWPD9aMixS2ALM-59" value="财富 2552" style="rounded=1;whiteSpace=wrap;html=1;" vertex="1" parent="iqYd82NWPD9aMixS2ALM-58">
          <mxGeometry x="130" y="595" width="80" height="40" as="geometry" />
        </mxCell>
        <mxCell id="iqYd82NWPD9aMixS2ALM-60" value="民生 6600" style="rounded=1;whiteSpace=wrap;html=1;" vertex="1" parent="iqYd82NWPD9aMixS2ALM-58">
          <mxGeometry x="30" y="595" width="80" height="40" as="geometry" />
        </mxCell>
        <mxCell id="iqYd82NWPD9aMixS2ALM-61" value="是否民生卡" style="rhombus;whiteSpace=wrap;html=1;" vertex="1" parent="iqYd82NWPD9aMixS2ALM-58">
          <mxGeometry x="74" y="490" width="100" height="60" as="geometry" />
        </mxCell>
        <mxCell id="iqYd82NWPD9aMixS2ALM-62" value="垫资账户" style="swimlane;html=1;startSize=20;" vertex="1" parent="iqYd82NWPD9aMixS2ALM-53">
          <mxGeometry x="590" y="20" width="260" height="970" as="geometry" />
        </mxCell>
        <mxCell id="iqYd82NWPD9aMixS2ALM-63" style="edgeStyle=orthogonalEdgeStyle;rounded=0;orthogonalLoop=1;jettySize=auto;html=1;" edge="1" parent="iqYd82NWPD9aMixS2ALM-62" source="iqYd82NWPD9aMixS2ALM-65" target="iqYd82NWPD9aMixS2ALM-67">
          <mxGeometry relative="1" as="geometry" />
        </mxCell>
        <mxCell id="iqYd82NWPD9aMixS2ALM-64" style="edgeStyle=orthogonalEdgeStyle;rounded=0;orthogonalLoop=1;jettySize=auto;html=1;exitX=0.5;exitY=1;exitDx=0;exitDy=0;exitPerimeter=0;" edge="1" parent="iqYd82NWPD9aMixS2ALM-62" source="iqYd82NWPD9aMixS2ALM-65" target="iqYd82NWPD9aMixS2ALM-69">
          <mxGeometry relative="1" as="geometry" />
        </mxCell>
        <mxCell id="iqYd82NWPD9aMixS2ALM-65" value="" style="verticalLabelPosition=bottom;verticalAlign=top;html=1;shape=mxgraph.flowchart.summing_function;" vertex="1" parent="iqYd82NWPD9aMixS2ALM-62">
          <mxGeometry x="110" y="155" width="50" height="50" as="geometry" />
        </mxCell>
        <mxCell id="iqYd82NWPD9aMixS2ALM-66" style="edgeStyle=orthogonalEdgeStyle;rounded=0;orthogonalLoop=1;jettySize=auto;html=1;entryX=0.5;entryY=0;entryDx=0;entryDy=0;" edge="1" parent="iqYd82NWPD9aMixS2ALM-62" source="iqYd82NWPD9aMixS2ALM-67" target="iqYd82NWPD9aMixS2ALM-70">
          <mxGeometry relative="1" as="geometry">
            <mxPoint x="87.5" y="341" as="targetPoint" />
          </mxGeometry>
        </mxCell>
        <mxCell id="iqYd82NWPD9aMixS2ALM-67" value="浦发垫资" style="rounded=1;whiteSpace=wrap;html=1;" vertex="1" parent="iqYd82NWPD9aMixS2ALM-62">
          <mxGeometry x="47.5" y="271" width="80" height="40" as="geometry" />
        </mxCell>
        <mxCell id="iqYd82NWPD9aMixS2ALM-68" style="edgeStyle=orthogonalEdgeStyle;rounded=0;orthogonalLoop=1;jettySize=auto;html=1;entryX=0.5;entryY=0;entryDx=0;entryDy=0;" edge="1" parent="iqYd82NWPD9aMixS2ALM-62" source="iqYd82NWPD9aMixS2ALM-69" target="iqYd82NWPD9aMixS2ALM-71">
          <mxGeometry relative="1" as="geometry">
            <mxPoint x="185.5" y="341" as="targetPoint" />
          </mxGeometry>
        </mxCell>
        <mxCell id="iqYd82NWPD9aMixS2ALM-69" value="北京垫资" style="rounded=1;whiteSpace=wrap;html=1;" vertex="1" parent="iqYd82NWPD9aMixS2ALM-62">
          <mxGeometry x="145.5" y="271" width="80" height="40" as="geometry" />
        </mxCell>
        <mxCell id="iqYd82NWPD9aMixS2ALM-70" value="杨浦 2144" style="rounded=1;whiteSpace=wrap;html=1;" vertex="1" parent="iqYd82NWPD9aMixS2ALM-62">
          <mxGeometry x="47.5" y="341" width="80" height="40" as="geometry" />
        </mxCell>
        <mxCell id="iqYd82NWPD9aMixS2ALM-71" value="北京&lt;br&gt;单位结算卡" style="rounded=1;whiteSpace=wrap;html=1;" vertex="1" parent="iqYd82NWPD9aMixS2ALM-62">
          <mxGeometry x="145.5" y="341" width="80" height="40" as="geometry" />
        </mxCell>
        <mxCell id="iqYd82NWPD9aMixS2ALM-72" value="浦发监管户" style="swimlane;html=1;startSize=20;" vertex="1" parent="iqYd82NWPD9aMixS2ALM-53">
          <mxGeometry x="850" y="20" width="240" height="970" as="geometry" />
        </mxCell>
        <mxCell id="iqYd82NWPD9aMixS2ALM-73" value="公募监管户&lt;br&gt;131" style="rounded=1;whiteSpace=wrap;html=1;" vertex="1" parent="iqYd82NWPD9aMixS2ALM-72">
          <mxGeometry x="89" y="500" width="80" height="40" as="geometry" />
        </mxCell>
        <mxCell id="iqYd82NWPD9aMixS2ALM-74" value="TA" style="swimlane;html=1;startSize=20;" vertex="1" parent="iqYd82NWPD9aMixS2ALM-53">
          <mxGeometry x="1090" y="20" width="240" height="970" as="geometry" />
        </mxCell>
        <mxCell id="iqYd82NWPD9aMixS2ALM-75" value="RT - 24" style="rounded=1;whiteSpace=wrap;html=1;" vertex="1" parent="iqYd82NWPD9aMixS2ALM-74">
          <mxGeometry x="94" y="60" width="80" height="40" as="geometry" />
        </mxCell>
        <mxCell id="iqYd82NWPD9aMixS2ALM-76" value="是否垫资" style="rhombus;whiteSpace=wrap;html=1;" vertex="1" parent="iqYd82NWPD9aMixS2ALM-74">
          <mxGeometry x="84" y="150" width="100" height="60" as="geometry" />
        </mxCell>
        <mxCell id="iqYd82NWPD9aMixS2ALM-77" style="edgeStyle=orthogonalEdgeStyle;rounded=1;orthogonalLoop=1;jettySize=auto;html=1;exitX=0.5;exitY=1;exitDx=0;exitDy=0;strokeColor=default;strokeWidth=1;align=center;verticalAlign=middle;fontFamily=Verdana;fontSize=8;fontColor=default;labelBackgroundColor=none;startArrow=none;startFill=0;startSize=5;endArrow=classicThin;endFill=1;endSize=5;" edge="1" parent="iqYd82NWPD9aMixS2ALM-74" source="iqYd82NWPD9aMixS2ALM-75" target="iqYd82NWPD9aMixS2ALM-76">
          <mxGeometry relative="1" as="geometry" />
        </mxCell>
        <mxCell id="iqYd82NWPD9aMixS2ALM-78" style="edgeStyle=orthogonalEdgeStyle;rounded=1;orthogonalLoop=1;jettySize=auto;html=1;exitX=1;exitY=0.5;exitDx=0;exitDy=0;entryX=0;entryY=0.5;entryDx=0;entryDy=0;strokeColor=default;strokeWidth=1;align=center;verticalAlign=middle;fontFamily=Verdana;fontSize=8;fontColor=default;labelBackgroundColor=none;startArrow=none;startFill=0;startSize=5;endArrow=classicThin;endFill=1;endSize=5;" edge="1" parent="iqYd82NWPD9aMixS2ALM-53" source="iqYd82NWPD9aMixS2ALM-55" target="iqYd82NWPD9aMixS2ALM-57">
          <mxGeometry relative="1" as="geometry">
            <mxPoint x="220" y="99.66666666666674" as="targetPoint" />
          </mxGeometry>
        </mxCell>
        <mxCell id="iqYd82NWPD9aMixS2ALM-79" style="edgeStyle=orthogonalEdgeStyle;rounded=1;orthogonalLoop=1;jettySize=auto;html=1;entryX=0;entryY=0.5;entryDx=0;entryDy=0;strokeColor=default;strokeWidth=1;align=center;verticalAlign=middle;fontFamily=Verdana;fontSize=8;fontColor=default;labelBackgroundColor=none;startArrow=none;startFill=0;startSize=5;endArrow=classicThin;endFill=1;endSize=5;" edge="1" parent="iqYd82NWPD9aMixS2ALM-53" source="iqYd82NWPD9aMixS2ALM-57" target="iqYd82NWPD9aMixS2ALM-75">
          <mxGeometry relative="1" as="geometry" />
        </mxCell>
        <mxCell id="iqYd82NWPD9aMixS2ALM-80" style="edgeStyle=orthogonalEdgeStyle;shape=connector;rounded=1;orthogonalLoop=1;jettySize=auto;html=1;entryX=1;entryY=0.5;entryDx=0;entryDy=0;strokeColor=default;strokeWidth=1;align=center;verticalAlign=middle;fontFamily=Verdana;fontSize=8;fontColor=default;labelBackgroundColor=none;startArrow=none;startFill=0;startSize=5;endArrow=classicThin;endFill=1;endSize=5;" edge="1" parent="iqYd82NWPD9aMixS2ALM-53" source="iqYd82NWPD9aMixS2ALM-76" target="iqYd82NWPD9aMixS2ALM-73">
          <mxGeometry relative="1" as="geometry">
            <Array as="points">
              <mxPoint x="1224" y="540" />
            </Array>
          </mxGeometry>
        </mxCell>
        <mxCell id="iqYd82NWPD9aMixS2ALM-81" value="否" style="edgeLabel;html=1;align=center;verticalAlign=middle;resizable=0;points=[];fontFamily=Verdana;fontSize=12;fontColor=default;labelBorderColor=none;labelBackgroundColor=default;fillColor=none;gradientColor=none;" connectable="0" vertex="1" parent="iqYd82NWPD9aMixS2ALM-80">
          <mxGeometry x="-0.8193" y="-1" relative="1" as="geometry">
            <mxPoint y="-1" as="offset" />
          </mxGeometry>
        </mxCell>
        <mxCell id="iqYd82NWPD9aMixS2ALM-82" style="edgeStyle=orthogonalEdgeStyle;shape=connector;rounded=1;orthogonalLoop=1;jettySize=auto;html=1;entryX=1;entryY=0.5;entryDx=0;entryDy=0;entryPerimeter=0;strokeColor=default;strokeWidth=1;align=center;verticalAlign=middle;fontFamily=Verdana;fontSize=8;fontColor=default;labelBackgroundColor=none;startArrow=none;startFill=0;startSize=5;endArrow=classicThin;endFill=1;endSize=5;" edge="1" parent="iqYd82NWPD9aMixS2ALM-53" source="iqYd82NWPD9aMixS2ALM-76" target="iqYd82NWPD9aMixS2ALM-65">
          <mxGeometry relative="1" as="geometry">
            <Array as="points">
              <mxPoint x="909" y="200" />
              <mxPoint x="909" y="200" />
            </Array>
          </mxGeometry>
        </mxCell>
        <mxCell id="iqYd82NWPD9aMixS2ALM-83" value="是" style="edgeLabel;html=1;align=center;verticalAlign=middle;resizable=0;points=[];fontFamily=Verdana;fontSize=12;fontColor=default;labelBackgroundColor=default;labelBorderColor=none;" connectable="0" vertex="1" parent="iqYd82NWPD9aMixS2ALM-82">
          <mxGeometry x="-0.5329" y="1" relative="1" as="geometry">
            <mxPoint as="offset" />
          </mxGeometry>
        </mxCell>
        <mxCell id="iqYd82NWPD9aMixS2ALM-84" style="edgeStyle=orthogonalEdgeStyle;shape=connector;rounded=1;orthogonalLoop=1;jettySize=auto;html=1;strokeColor=default;strokeWidth=1;align=center;verticalAlign=middle;fontFamily=Verdana;fontSize=12;fontColor=default;labelBorderColor=none;labelBackgroundColor=default;resizable=0;startArrow=none;startFill=0;startSize=5;endArrow=classicThin;endFill=1;endSize=5;" edge="1" parent="iqYd82NWPD9aMixS2ALM-53" source="iqYd82NWPD9aMixS2ALM-70" target="iqYd82NWPD9aMixS2ALM-61">
          <mxGeometry relative="1" as="geometry">
            <Array as="points">
              <mxPoint x="608" y="470" />
              <mxPoint x="474" y="470" />
            </Array>
          </mxGeometry>
        </mxCell>
        <mxCell id="iqYd82NWPD9aMixS2ALM-85" style="edgeStyle=orthogonalEdgeStyle;shape=connector;rounded=1;orthogonalLoop=1;jettySize=auto;html=1;strokeColor=default;strokeWidth=1;align=center;verticalAlign=middle;fontFamily=Verdana;fontSize=12;fontColor=default;labelBorderColor=none;labelBackgroundColor=default;resizable=0;startArrow=none;startFill=0;startSize=5;endArrow=classicThin;endFill=1;endSize=5;" edge="1" parent="iqYd82NWPD9aMixS2ALM-53" source="iqYd82NWPD9aMixS2ALM-71" target="iqYd82NWPD9aMixS2ALM-61">
          <mxGeometry relative="1" as="geometry">
            <mxPoint x="469" y="465" as="targetPoint" />
            <Array as="points">
              <mxPoint x="706" y="410" />
              <mxPoint x="706" y="540" />
            </Array>
          </mxGeometry>
        </mxCell>
        <mxCell id="iqYd82NWPD9aMixS2ALM-86" style="edgeStyle=orthogonalEdgeStyle;shape=connector;rounded=1;orthogonalLoop=1;jettySize=auto;html=1;entryX=1;entryY=0.5;entryDx=0;entryDy=0;strokeColor=default;strokeWidth=1;align=center;verticalAlign=middle;fontFamily=Verdana;fontSize=12;fontColor=default;labelBorderColor=none;labelBackgroundColor=default;resizable=0;startArrow=none;startFill=0;startSize=5;endArrow=classicThin;endFill=1;endSize=5;" edge="1" parent="iqYd82NWPD9aMixS2ALM-53" source="iqYd82NWPD9aMixS2ALM-73" target="iqYd82NWPD9aMixS2ALM-61">
          <mxGeometry relative="1" as="geometry" />
        </mxCell>
      </root>
    </mxGraphModel>
  </diagram>
</mxfile>
